<svg xmlns="http://www.w3.org/2000/svg" viewBox="35 95 650 650">
  <path d="M168.89,630.79l-15.17-17.66c28.28-27.75,56.3-55.8,84.66-83.46,39.22-38.25,78.93-75.98,117.98-114.42,41.95-41.3,82.19-84.52,123.34-126.94,37.98-39.15,76.52-77.71,114.45-116.85,1.39-1.11,1.95-.13,3.01.6,1.37.94,15.02,14.6,15.53,15.58.72,1.4.57,1.98-.6,3.01-66.27,64.45-132.38,129.04-198.46,193.68-52.4,51.26-103.17,104.15-154.33,156.74-29.21,30.02-59.14,59.43-87.85,89.78l-2.56-.04Z"/>
  <path d="M627.09,203.2l16.96,16.97-3.43,4.98c-79.09,77.68-161.54,152.97-237.69,233.08l-197.29,202.03c-1.85.81-17.5-15.07-18.53-18.53,65.89-63.63,131.21-127.85,196.67-191.93,69.03-67.58,135.38-137.93,203.19-206.8,13.21-13.42,26.68-26.61,40.12-39.81Z"/>
  <path d="M557.97,143.61l18.94,18.98-169.86,166.36c-1.51.64-3.47-3.52-5.39-.77l-258.58,265.92-16.72-16.73,266.48-258.02c2.75-1.92-1.41-3.88-.77-5.39l165.9-170.36Z"/>
  <path d="M349.07,577.79c-35.56,36.57-71.04,73.21-106.49,109.91l-3.01-.6-16.69-17.95,167.48-163.97,4.19,1.91,260-266.85,16.51,16.51-266.48,258.02c-2.75,1.92,1.41,3.88.77,5.39-18.02,19.93-37.57,38.38-56.28,57.63Z"/>
  <path d="M536.94,141.11l-128.71,124.65-1.62.45-3.89-3.42-2.26,1.05L121.02,553.01c-1.39,1.11-1.95.13-3-.59-4.27-2.93-8.67-9.9-13.14-13.19l289.14-281.84c3.24-2.91-2.5-4.27-2.5-7.19l125.19-128.8c1.39-1.11,1.95-.13,3.01.6,2.12,1.46,14.57,13.97,16.08,16.14.7,1.01,1.63,1.24,1.16,2.98Z"/>
  <path d="M619.96,368.37c-71.85,69.77-144.59,138.72-216.55,208.37l-1.03,2.26,4.66,4.93-123.93,126.41c-.9.8-1.45.47-2.36,0-1.09-.56-16.85-16.22-17.33-17.35l125.77-124.62c3.24-1.64,4.96,5.79,9.01,1.94l279.39-289.16,14.37,13.11.6,3.01c-24.21,23.68-48.3,47.52-72.59,71.11Z"/>
  <path d="M334.15,723.75c-5.9,3.46-15.08-15-20.69-16.43v-2.44s76.31-75.04,76.31-75.04l6.2,5.81,3.39-.99c89.13-93.2,178.33-186.36,268.71-278.35,9.49-9.66,18.07-21.5,29.17-29.28,1.33,0,12.36,10.37,13.18,11.97.47.92.8,1.47,0,2.36l-309.24,299.61,5.69,6.3-1.68,3.93-71.04,72.55Z"/>
  <path d="M398.86,198.51L107.36,501.18c-4.86,3.32-11.33-9.1-15.61-10.79L395.2,195.4l1.03-2.26c-1.17-2.58-6.9-4.88-5.35-7.9l76.94-78.12,17.95,16.69.57,2.98-78.71,77.49c-2.14-1.68-5.77-7.5-8.79-5.77Z"/>
  <path d="M431.91,119.53c-.12.2-2.46.93-3.43,1.87-6.68,6.46-12.87,13.44-19.81,19.65l-9.37-8.24L94.8,449.31c-.9.8-1.45.47-2.36,0-1.46-.75-10.78-10.66-10.78-11.99L397.43,131.17c-1.58-2.98-7.87-5.89-6.94-9.46,6.13-4.08,16.18-20.29,21.33-22.96,1.72-.89,1.75-.27,3.01.6,1.8,1.24,14.96,14.37,16.11,16.1.8,1.21,1.81,2.64.97,4.08Z"/>
  <path d="M475.48,620.78c73.48-76.37,148.49-151.7,221.2-228.72,1.98-2.09,5.17-8.86,8.3-7.25.72.37,11.06,10.65,11.37,11.39l-315.33,304.5c-3.62,3.91,7.71,8.48,7.14,11.79l-23.32,23.32c-1.29.23-18.13-16.17-18.98-17.8-.59-1.15-.59-1.22,0-2.36.74-1.43,21.29-22.29,22.88-22.57l9.37,8.24c26.11-26.53,51.57-53.72,77.37-80.53Z"/>
  <path d="M345.07,122.07l-2.37,4.17c-9.09,8.02-16.66,17.55-25,26.25-71.34,74.45-143.65,148.17-214.51,222.89-1.73,1.82-8.19,8.86-9.58,9.57-2.61,1.35-11.8-9.14-11.35-10.2L345.07,122.07Z"/>
  <path d="M624.69,547.12c-56.4,54.42-113.21,108.54-169.96,162.56l247.2-258.73c3.21-3.93,13.25,7.31,12.06,9.61-29.78,28.84-59.48,57.79-89.3,86.56Z"/>
  <path d="M283.1,120.87l-2.37,4.17c-47.86,49.08-95.17,98.69-143.04,147.76-3.88,3.98-23.32,26.89-26.78,26.89-2.38,0-8.94-6.38-5.43-9.04l177.63-169.79Z"/>
  <path d="M521.47,706.1l2.37-4.17,159.71-165.74c2.76-1.43,6.43,4.5,8.25,6.19l-170.32,163.72Z"/>
</svg>
