<svg xmlns="http://www.w3.org/2000/svg" viewBox="25 100 1140 260">
  <g>
    <path d="M433.36,210c17.36,0,32.4,1.08,45.14,3.22,12.73,2.15,23.35,6.78,31.87,13.89,8.51,7.11,12.77,17.61,12.77,31.5,0,25.46-11.16,42.66-33.48,51.58-22.32,8.93-47.37,13.39-75.14,13.39s-52.82-4.59-76.63-13.76c-23.81-9.18-35.71-26.66-35.71-52.45l53.32-.5c0,9.09,3.51,15.87,10.54,20.34,7.03,4.46,14.71,7.23,23.06,8.31,8.35,1.08,17.4,1.61,27.16,1.61,14.88,0,27.69-2.15,38.44-6.45,10.75-4.3,16.2-11.24,16.37-20.83v-.25c0-7.11-5.33-11.69-16-13.76-10.66-2.07-23.52-3.1-38.56-3.1h-15.38c-19.84,0-36.62-1.03-50.34-3.1-13.72-2.07-25.26-6.86-34.6-14.38-9.34-7.52-14.01-18.89-14.01-34.1,0-41.5,37.45-62.25,112.34-62.25,26.62,0,51.38,4.55,74.28,13.64,22.9,9.09,34.35,26.62,34.35,52.58h-52.82c0-9.26-5.38-16.28-16.12-21.08-10.75-4.79-23.81-7.52-39.18-8.18-16.7,0-30.88,1.98-42.53,5.95-11.66,3.97-17.48,10.17-17.48,18.6,0,13.23,19.18,19.84,57.54,19.84l20.83-.25Z"/>
    <path d="M770.64,317.88h-52.82l-19.1-35.22h-109.86l-19.1,35.22h-52.82l99.7-183.52h54.56l99.45,183.52ZM643.91,181.23l-34.72,63.74h69.19l-34.47-63.74Z"/>
    <path d="M833.63,266.55l69.69-132.18h53.32l-94.24,183.52h-58.28l-95.48-183.52h57.04l67.95,132.18ZM903.32,134.36l-96.72,183.52,96.72-183.52Z"/>
    <path d="M1145.62,317.88h-52.82l-19.1-35.22h-109.86l-19.1,35.22h-52.82l99.7-183.52h54.56l99.45,183.52ZM1018.89,181.23l-34.72,63.74h69.19l-34.47-63.74Z"/>
  </g>
  <g>
    <path d="M64.15,307.95l-5.8-6.75c10.81-10.61,21.53-21.34,32.37-31.92,15-14.63,30.18-29.05,45.12-43.75,16.04-15.79,31.43-32.32,47.17-48.54,14.53-14.97,29.26-29.72,43.76-44.68.53-.42.75-.05,1.15.23.52.36,5.74,5.58,5.94,5.96.28.53.22.76-.23,1.15-25.34,24.64-50.62,49.35-75.89,74.06-20.04,19.6-39.45,39.82-59.02,59.93-11.17,11.48-22.61,22.73-33.59,34.33l-.98-.02Z"/>
    <path d="M239.36,144.44l6.48,6.49-1.31,1.91c-30.24,29.7-61.77,58.5-90.89,89.13l-75.44,77.26c-.71.31-6.69-5.76-7.09-7.09,25.2-24.33,50.17-48.89,75.2-73.39,26.4-25.84,51.77-52.75,77.7-79.08,5.05-5.13,10.2-10.18,15.34-15.22Z"/>
    <path d="M212.93,121.65l7.24,7.26-64.95,63.62c-.58.24-1.33-1.35-2.06-.3l-98.88,101.69-6.4-6.4,101.9-98.67c1.05-.73-.54-1.48-.3-2.06l63.44-65.14Z"/>
    <path d="M133.05,287.68c-13.6,13.98-27.16,28-40.72,42.03l-1.15-.23-6.38-6.86,64.04-62.7,1.6.73,99.42-102.04,6.31,6.31-101.9,98.67c-1.05.73.54,1.48.3,2.06-6.89,7.62-14.37,14.68-21.52,22.04Z"/>
    <path d="M204.89,120.7l-49.22,47.66-.62.17-1.49-1.31-.87.4-106.86,110.58c-.53.43-.75.05-1.15-.23-1.63-1.12-3.31-3.79-5.03-5.04l110.56-107.77c1.24-1.11-.95-1.63-.96-2.75l47.87-49.25c.53-.42.75-.05,1.15.23.81.56,5.57,5.34,6.15,6.17.27.38.62.48.44,1.14Z"/>
    <path d="M236.63,207.6c-27.47,26.68-55.29,53.05-82.81,79.68l-.4.86,1.78,1.89-47.39,48.34c-.34.3-.55.18-.9,0-.42-.21-6.44-6.2-6.63-6.64l48.1-47.66c1.24-.63,1.9,2.21,3.44.74l106.84-110.57,5.5,5.01.23,1.15c-9.26,9.05-18.47,18.17-27.76,27.19Z"/>
    <path d="M127.34,343.49c-2.25,1.32-5.77-5.74-7.91-6.28v-.93s29.18-28.69,29.18-28.69l2.37,2.22,1.3-.38c34.08-35.64,68.19-71.26,102.76-106.44,3.63-3.69,6.91-8.22,11.15-11.19.51,0,4.73,3.97,5.04,4.58.18.35.3.56,0,.9l-118.25,114.57,2.17,2.41-.64,1.5-27.17,27.74Z"/>
    <path d="M152.08,142.65l-111.47,115.74c-1.86,1.27-4.33-3.48-5.97-4.12l116.04-112.8.4-.86c-.45-.99-2.64-1.86-2.04-3.02l29.42-29.87,6.86,6.38.22,1.14-30.1,29.63c-.82-.64-2.2-2.87-3.36-2.21Z"/>
    <path d="M164.72,112.44c-.04.08-.94.36-1.31.72-2.56,2.47-4.92,5.14-7.58,7.51l-3.58-3.15-116.44,121.03c-.34.3-.55.18-.9,0-.56-.29-4.12-4.08-4.12-4.58l120.75-117.07c-.61-1.14-3.01-2.25-2.65-3.62,2.34-1.56,6.19-7.76,8.16-8.78.66-.34.67-.1,1.15.23.69.47,5.72,5.49,6.16,6.16.31.46.69,1.01.37,1.56Z"/>
    <path d="M181.38,304.12c28.1-29.2,56.78-58.01,84.58-87.46.76-.8,1.98-3.39,3.17-2.77.27.14,4.23,4.07,4.35,4.36l-120.58,116.44c-1.38,1.5,2.95,3.24,2.73,4.51l-8.92,8.92c-.49.09-6.93-6.18-7.26-6.81-.23-.44-.23-.47,0-.9.28-.55,8.14-8.52,8.75-8.63l3.58,3.15c9.98-10.15,19.72-20.54,29.58-30.79Z"/>
    <path d="M131.51,113.41l-.91,1.6c-3.48,3.07-6.37,6.71-9.56,10.04-27.28,28.47-54.93,56.66-82.03,85.23-.66.7-3.13,3.39-3.66,3.66-1,.51-4.51-3.5-4.34-3.9l100.5-96.63Z"/>
    <path d="M238.44,275.95c-21.57,20.81-43.29,41.5-64.99,62.16l94.53-98.94c1.23-1.5,5.07,2.79,4.61,3.68-11.39,11.03-22.75,22.1-34.15,33.1Z"/>
    <path d="M107.82,112.96l-.91,1.6c-18.3,18.77-36.39,37.74-54.7,56.5-1.48,1.52-8.92,10.28-10.24,10.28-.91,0-3.42-2.44-2.08-3.46l67.92-64.93Z"/>
    <path d="M198.97,336.74l.91-1.6,61.07-63.38c1.06-.55,2.46,1.72,3.15,2.37l-65.13,62.61Z"/>
  </g>
</svg>